<?xml version="1.0" standalone="no"?>
<!DOCTYPE svg PUBLIC "-//W3C//DTD SVG 20010904//EN"
 "http://www.w3.org/TR/2001/REC-SVG-20010904/DTD/svg10.dtd">
<svg version="1.0" xmlns="http://www.w3.org/2000/svg"
 width="700.000000pt" height="700.000000pt" viewBox="0 0 700.000000 700.000000"
 preserveAspectRatio="xMidYMid meet">
<metadata>
Created by potrace 1.14, written by Peter Selinger 2001-2017
</metadata>
<g transform="translate(0.000000,700.000000) scale(0.100000,-0.100000)"
fill="#000000" stroke="none">
<path d="M0 3500 l0 -3500 1613 1 c886 1 1594 5 1572 8 -35 5 -40 9 -38 31 1
14 81 589 178 1279 96 689 175 1260 175 1267 0 17 -100 18 -275 4 -1090 -92
-2030 -673 -2452 -1515 -91 -181 -179 -463 -205 -654 l-12 -91 -113 0 c-92 0
-113 3 -113 14 0 56 36 267 64 378 298 1178 1526 2049 2954 2095 120 4 185 10
187 17 3 6 133 931 290 2056 157 1125 288 2060 291 2078 l6 32 -2061 0 -2061
0 0 -3500z m2152 2294 c105 -54 211 -251 257 -480 59 -288 52 -649 -16 -897
l-16 -59 -18 70 c-32 129 -92 213 -183 259 -166 85 -348 -32 -404 -258 l-19
-74 -21 90 c-40 172 -47 244 -46 465 1 173 5 238 23 334 75 417 259 645 443
550z"/>
<path d="M4253 6993 c12 -3 15 -11 12 -26 -16 -73 -895 -6393 -890 -6405 11
-29 478 -2 735 43 1039 180 1888 823 2217 1680 44 115 99 328 115 444 l12 91
107 0 107 0 -5 -47 c-107 -1096 -996 -2014 -2258 -2332 -269 -67 -518 -100
-841 -108 l-231 -6 -17 -131 c-10 -72 -21 -146 -23 -164 l-6 -32 1857 0 1856
0 0 3500 0 3500 -1382 -1 c-761 -1 -1375 -3 -1365 -6z m778 -1203 c87 -45 186
-210 233 -390 46 -174 59 -281 60 -490 1 -206 -9 -304 -47 -460 l-24 -95 -12
56 c-51 236 -238 361 -413 276 -93 -46 -153 -130 -188 -265 l-17 -67 -21 90
c-40 172 -47 244 -46 465 1 171 5 238 22 330 39 213 108 387 192 483 83 93
166 115 261 67z"/>
</g>
</svg>
